<?xml version="1.0" encoding="UTF-8" standalone="no"?>
<!DOCTYPE svg PUBLIC "-//W3C//DTD SVG 1.1//EN" "http://www.w3.org/Graphics/SVG/1.1/DTD/svg11.dtd">
<svg version="1.1" xmlns="http://www.w3.org/2000/svg" xmlns:xlink="http://www.w3.org/1999/xlink" preserveAspectRatio="xMidYMid meet" viewBox="165.1346267269575 172.4176857949201 303.82820283356915 290.5604752803526" width="304" height="291"><defs><path d="M380.28 373.03C383.74 345.61 389.86 309.17 391.57 280.84C392.72 262.47 399.32 258.86 416.44 258.86C418.77 258.86 437.44 258.86 439.77 258.86C455.65 258.86 460.32 263.21 457.25 278.5C440.68 361.4 428.33 427.9 425.12 444.5C422.71 457.47 416.33 461.12 403.46 461.81C337.51 465.37 337.61 465.76 313.75 386.03C311.84 391.16 296.55 432.17 294.64 437.3C288.28 454.33 281.67 462.11 262.27 462C203.95 461.7 203.8 462.66 191.93 405.14C183.29 363.28 175.46 321.25 166.43 279.48C163.27 264.9 164.93 259.03 182.29 258.52C235.09 257.02 231.21 256.81 241.69 307.8C255.52 374.57 252.32 354.44 255.52 374.57C255.78 376.23 251.42 374.16 255.52 374.57C265.15 341.23 274.24 309.11 283.23 277.05C289.05 256.36 303.1 258.94 319.13 258.99C337.31 258.99 342.14 258.07 348.54 277.24" id="a3ACrZw1IX"></path><path d="M228.33 203.84C228.22 225.51 216.07 236.44 195.26 235.71C175.65 235.03 164.59 222.65 165.16 203.37C165.72 184.08 177.72 173.77 197.08 172.42C215.77 174.69 228.45 183.18 228.33 203.84Z" id="a7WZY1tzP"></path><path d="M318.95 235.77C299.32 235.3 288.13 222.86 288.58 203.78C289.09 182.82 302.52 171.8 323.09 173.06C342.75 174.21 352.15 186.57 351.36 210.31C350.25 226.87 337.84 236.22 318.95 235.77Z" id="aCFsQCYiH"></path><path d="M468.58 209.82C466.36 228.64 453.75 236.95 436.09 235.73C415.2 234.28 403.86 220.68 406.11 200.62C408.18 182.2 420.81 171.61 440.75 172.79C461.77 176.29 471.03 189.14 468.58 209.82Z" id="b4TUtMqM3"></path></defs><g><g><use xlink:href="#a3ACrZw1IX" opacity="1" fill="#ffffff" fill-opacity="1"></use><g><use xlink:href="#a3ACrZw1IX" opacity="1" fill-opacity="0" stroke="#000000" stroke-width="1" stroke-opacity="0"></use></g></g><g><use xlink:href="#a7WZY1tzP" opacity="1" fill="#fffcfa" fill-opacity="1"></use><g><use xlink:href="#a7WZY1tzP" opacity="1" fill-opacity="0" stroke="#000000" stroke-width="1" stroke-opacity="0"></use></g></g><g><use xlink:href="#aCFsQCYiH" opacity="1" fill="#fffcfb" fill-opacity="1"></use><g><use xlink:href="#aCFsQCYiH" opacity="1" fill-opacity="0" stroke="#000000" stroke-width="1" stroke-opacity="0"></use></g></g><g><use xlink:href="#b4TUtMqM3" opacity="1" fill="#fffdfc" fill-opacity="1"></use><g><use xlink:href="#b4TUtMqM3" opacity="1" fill-opacity="0" stroke="#000000" stroke-width="1" stroke-opacity="0"></use></g></g></g></svg>